# xmcd CD database file
#
# Track frame offsets:
#	150
#	21350
#	45280
#
# Disc length: 883 seconds
#
# Revision: 0
# Processed by: cddbd v1.5PL3 Copyright (c) Steve Scherf et al.
# Submitted via: CDex 1.40Release
#
DISCID=19037103
DTITLE=うたいびと はね - 青空
DYEAR=2003
DGENRE=Japanese Rock
TTITLE0=青空
TTITLE1=サイクル
TTITLE2=青空(Instrumental)
EXTD=YEAR: 2003
EXTT0=
EXTT1=
EXTT2=
PLAYORDER=
